<?xml version="1.0" encoding="UTF-8"?>
<svg version="1.1" xmlns="http://www.w3.org/2000/svg" width="688" height="688">
<path d="M0 0 C2.3125 0.0625 2.3125 0.0625 5 1 C7.97550916 4.76314394 12 10.03831638 12 15 C12.66 15 13.32 15 14 15 C15.5066972 17.7881022 17.00419804 20.58103958 18.5 23.375 C18.92925781 24.1690625 19.35851562 24.963125 19.80078125 25.78125 C20.40986328 26.92207031 20.40986328 26.92207031 21.03125 28.0859375 C21.40830078 28.7876709 21.78535156 29.4894043 22.17382812 30.21240234 C23 32 23 32 23 34 C23.66 34 24.32 34 25 34 C26.56379519 36.41245824 28.01883195 38.81665265 29.4375 41.3125 C30.22364846 42.6860155 31.01388988 44.05719804 31.80859375 45.42578125 C32.15720459 46.03848877 32.50581543 46.65119629 32.86499023 47.2824707 C34.07102315 49.10747427 35.44505924 50.46851465 37 52 C38.45405092 54.19234809 39.86361365 56.39101532 41.25 58.625 C46.36779447 66.71898239 52.07269507 74.00740717 58.44140625 81.15625 C60.5244822 83.6204401 62.21160969 86.31741454 64 89 C64.78375 89.78375 65.5675 90.5675 66.375 91.375 C70.12569693 95.12569693 73.78550223 99.31658397 75.98828125 104.18359375 C76.92771652 106.35085946 76.92771652 106.35085946 80 107 C81.33203125 108.3203125 81.33203125 108.3203125 82.8125 110.125 C94.5878881 123.98716574 107.22962042 137.59952708 121.484375 148.921875 C123.80983499 150.84290717 125.90337162 152.83518859 128 155 C133.52630027 160.68549411 139.68404573 165.97330758 146.375 170.25 C149 172 149 172 151.3125 174.375 C154.30672842 177.2995952 157.4695559 179.36762299 161.01171875 181.5703125 C163 183 163 183 165 186 C166.62751563 186.91547754 168.25789204 187.82624274 169.90234375 188.7109375 C172.3370577 190.20713043 174.38904177 191.95772016 176.5625 193.8125 C182.49016359 198.69572209 189.07113641 201.80513495 196 205 C196 205.66 196 206.32 196 207 C197.216875 207.2475 198.43375 207.495 199.6875 207.75 C203.59543903 208.58871786 207.2357936 209.78977207 211 211.125 C227.52718334 216.2561139 245.43861436 211.96165766 261.6796875 207.55078125 C264 207 264 207 267 207 C267 206.34 267 205.68 267 205 C269.97 204.34 272.94 203.68 276 203 C276.33 181.22 276.66 159.44 277 137 C267.72068359 137.01740234 267.72068359 137.01740234 258.25390625 137.03515625 C254.25716036 137.04028549 250.26041872 137.04510074 246.26367188 137.04882812 C239.96540449 137.05473047 233.66715207 137.06159083 227.36889648 137.07543945 C187.24350382 137.1607975 187.24350382 137.1607975 169.53046989 136.73226738 C167.56414427 136.68593363 165.59756456 136.65078231 163.6309967 136.6162262 C146.24499809 136.10368119 130.38753482 132.25306835 117.5859375 119.6171875 C116.27181533 118.12588032 114.9792363 116.61503373 113.71875 115.078125 C112.02646198 112.94968439 112.02646198 112.94968439 109.96875 111.05859375 C101.90930419 102.63135577 96.81078485 89.21857861 96.9375 77.6875 C96.94652344 76.61886719 96.95554687 75.55023438 96.96484375 74.44921875 C96.97644531 73.64097656 96.98804687 72.83273438 97 72 C98.32 72 99.64 72 101 72 C101.495 70.515 101.495 70.515 102 69 C102.51327465 69.32460217 103.0265493 69.64920434 103.55537772 69.98364294 C106.83845037 71.34858758 109.55787533 71.25541536 113.11395645 71.26171303 C113.83444227 71.26570909 114.55492809 71.26970515 115.29724681 71.27382231 C117.72413261 71.28483682 120.15079192 71.28158966 122.57769775 71.2784729 C124.33006796 71.28347348 126.08243586 71.28934857 127.83480048 71.29602563 C132.66004213 71.31186843 137.48522562 71.31525866 142.31049013 71.31667423 C147.5102127 71.32036083 152.70990308 71.33551257 157.90960693 71.34928894 C166.92173172 71.37158893 175.93384509 71.38658573 184.94599152 71.39665604 C197.97612263 71.41122661 211.00621401 71.43675885 224.03632185 71.46498732 C245.17557125 71.51048484 266.31482635 71.5470874 287.45410156 71.578125 C307.99187218 71.60829843 328.52962883 71.64264314 349.06738281 71.68261719 C350.96553566 71.68630951 350.96553566 71.68630951 352.90203503 71.69007643 C359.25019884 71.70245079 365.59836248 71.71490737 371.94652605 71.72740483 C424.63099786 71.83101694 477.31548711 71.92020556 530 72 C530.0357672 73.88657786 530.06104301 75.7733561 530.08203125 77.66015625 C530.0972583 78.71082275 530.11248535 79.76148926 530.12817383 80.84399414 C529.85092946 87.67054262 527.58845682 93.27410885 524 99 C523.4328125 99.94359375 522.865625 100.8871875 522.28125 101.859375 C521.6934375 102.81328125 521.105625 103.7671875 520.5 104.75 C519.9121875 105.71421875 519.324375 106.6784375 518.71875 107.671875 C517 110 517 110 514 111 C512.93477688 112.86958238 512.93477688 112.86958238 512 115 C508.96648259 119.28261281 505.82670045 122.51773303 501.078125 124.90234375 C498.8783181 126.01740996 498.8783181 126.01740996 496.484375 127.69140625 C487.91155022 133.30121919 479.93443533 134.66720682 470 136 C469.20016095 136.17299338 468.4003219 136.34598677 467.57624531 136.52422237 C464.98372518 137.00300561 462.62861635 137.12310793 459.99491882 137.12025452 C458.52054604 137.12231651 458.52054604 137.12231651 457.01638794 137.12442017 C455.94967865 137.12082489 454.88296936 137.11722961 453.78393555 137.11352539 C452.65179123 137.11367142 451.51964691 137.11381744 450.35319519 137.1139679 C446.61435016 137.11327172 442.87555507 137.10549306 439.13671875 137.09765625 C436.54311653 137.09579102 433.94951395 137.09436761 431.35591125 137.09336853 C425.22910598 137.08994164 419.10232129 137.08206162 412.97552377 137.07201904 C405.99851766 137.06083173 399.02151069 137.05534086 392.04449785 137.05032361 C377.6963223 137.0398783 363.34816178 137.02229518 349 137 C349.00261841 137.8166362 349.00523682 138.6332724 349.00793457 139.47465515 C349.01655914 142.56352165 349.02277473 145.65238192 349.02746582 148.74125671 C349.03115671 150.71190809 349.03751641 152.6825539 349.04394531 154.65319824 C349.05723528 165.13067783 348.68146925 175.54674849 348 186 C346.6402002 186.02187378 346.6402002 186.02187378 345.25292969 186.04418945 C341.83066369 186.10590888 338.40911549 186.18017443 334.98730469 186.26245117 C333.51735382 186.29533418 332.04728777 186.32347494 330.57714844 186.34643555 C318.49656832 186.54008741 307.43789406 187.41958853 297 194 C296.34 194 295.68 194 295 194 C294.67 194.99 294.34 195.98 294 197 C292.00390625 198.82421875 292.00390625 198.82421875 289.5625 200.6875 C288.75941406 201.31011719 287.95632813 201.93273437 287.12890625 202.57421875 C285 204 285 204 283 204 C282.67 204.99 282.34 205.98 282 207 C281.34 207 280.68 207 280 207 C279.6596875 208.11375 279.6596875 208.11375 279.3125 209.25 C278 212 278 212 275.66796875 213.86328125 C272.96836733 216.02533393 271.09431641 218.19715454 269 220.9375 C266.17921614 224.54388534 263.32713386 227.84348838 260 231 C255.64861893 235.23548472 251.52776217 239.58906288 247.578125 244.203125 C246.10213522 245.88370742 244.6713234 247.51233851 243 249 C242.34 249 241.68 249 241 249 C240.73703125 249.58136719 240.4740625 250.16273438 240.203125 250.76171875 C238.94085206 253.11003822 237.53551439 254.83797845 235.75 256.8125 C235.13253906 257.50730469 234.51507813 258.20210938 233.87890625 258.91796875 C232.68592738 260.23991831 231.48615409 261.55579251 230.27734375 262.86328125 C226.57059719 266.97075717 224.04690469 270.34813485 223.97265625 276.12890625 C224.31790556 281.36076111 225.47693213 285.97638697 229 290 C237.75208612 297.221303 246.79298171 299.09537888 258 299 C272.53718444 296.93310174 283.52090957 288.98135829 294.30859375 279.44140625 C296.8374021 277.28637096 299.51552427 275.34572938 302.203125 273.39453125 C304.00975567 272.05558485 304.00975567 272.05558485 305.47265625 270.5078125 C308.55935051 267.46059004 312.34206857 265.29670121 316 263 C316.64195312 262.57847656 317.28390625 262.15695312 317.9453125 261.72265625 C323.68423666 258.34893723 329.48065096 257.90218216 336 259 C343.55520158 262.06231543 349.76947723 267.86956953 356 273 C357.49556903 274.17234142 358.99545529 275.33920013 360.5 276.5 C363.76224547 279.02318809 366.9806919 281.59425159 370.1875 284.1875 C372.85316757 286.33243251 375.4960241 288.40078374 378.375 290.25 C381 292 381 292 382.796875 293.83203125 C385.32273057 296.31758062 388.0188967 298.34084402 390.875 300.4375 C399.82638073 307.090849 399.82638073 307.090849 403 310 C403 310.66 403 311.32 403 312 C404.65 312.33 406.3 312.66 408 313 C408.33 313.99 408.66 314.98 409 316 C410.30660788 316.71763365 411.64586565 317.37666832 413 318 C418.09033594 321.61514019 422.59037853 325.59037853 427 330 C429.04877099 331.56647276 431.1251092 333.08086119 433.23046875 334.5703125 C435 336 435 336 437 339 C438.65848177 340.01351664 440.32665961 341.01120795 442 342 C444.12524546 343.57518193 446.03318937 345.2161485 448 347 C448 347.66 448 348.32 448 349 C449.11375 349.3403125 449.11375 349.3403125 450.25 349.6875 C454.44739166 351.69080057 456.28004295 354.48809019 458.25 358.625 C459.60870163 364.73915735 460.3559217 371.26369028 457.25 376.9375 C453.71174527 381.75345783 450.72302675 384.95606188 445 387 C434.53424658 387.76712329 434.53424658 387.76712329 431 386 C431.33 386.66 431.66 387.32 432 388 C432.15144564 390.59787529 432.23136981 393.15108821 432.25 395.75 C432.2809375 396.80574219 432.2809375 396.80574219 432.3125 397.8828125 C432.34802104 402.6603926 431.58057439 405.83858948 429 410 C425.7 413 425.7 413 423 413 C423 413.66 423 414.32 423 415 C419.44086771 416.18637743 416.201855 416.14615346 412.5 416.125 C411.82324219 416.12886719 411.14648438 416.13273437 410.44921875 416.13671875 C407.35926233 416.13062416 404.95320689 415.9844023 402 415 C402.05220703 416.051875 402.05220703 416.051875 402.10546875 417.125 C402.32967352 424.98284346 401.65828199 430.60330635 396.75 436.875 C390.01637906 442.07825255 382.18169618 441.45988619 374 441 C371.60546875 440.48828125 371.60546875 440.48828125 370 440 C370.03480469 440.58007812 370.06960938 441.16015625 370.10546875 441.7578125 C370.34036955 448.53637836 369.23412998 452.53672848 364.5625 457.6875 C363.716875 458.450625 362.87125 459.21375 362 460 C361.41476562 460.53496094 360.82953125 461.06992187 360.2265625 461.62109375 C355.20194622 464.7328298 347.82543911 463.62698222 342.25390625 462.390625 C338.74958029 461.26279595 336.08287842 460.05525228 333 458 C333 457.34 333 456.68 333 456 C332.113125 455.7525 331.22625 455.505 330.3125 455.25 C326.3201848 453.74346596 322.95937668 451.91875337 321 448 C321.00416868 446.06156429 321.0143747 444.12280034 321.06640625 442.18505859 C321.43946042 432.18489164 321.43946042 432.18489164 318 423 C315.00257269 419.87997852 311.89155995 416.94577998 308 415 C308 414.34 308 413.68 308 413 C307.21625 412.855625 306.4325 412.71125 305.625 412.5625 C303 412 303 412 301 411 C300.96261719 409.80503906 300.92523438 408.61007812 300.88671875 407.37890625 C300.44248732 395.70371877 300.01333538 386.87257379 292.109375 377.7265625 C286.54069037 373.16849101 280.49622274 372.42150546 273.5625 371.8125 C272.32209961 371.6897168 272.32209961 371.6897168 271.05664062 371.56445312 C269.03873118 371.36616145 267.01947588 371.18164598 265 371 C264.70867187 370.05898438 264.41734375 369.11796875 264.1171875 368.1484375 C260.97412279 358.60063715 258.15475961 352.95274036 249.04199219 347.82470703 C245.29408515 346.31102578 241.54237841 346.58323636 237.5625 346.75 C236.73556641 346.76804687 235.90863281 346.78609375 235.05664062 346.8046875 C233.03725067 346.8513786 231.01846555 346.92310607 229 347 C229 347.66 229 348.32 229 349 C226.98828125 350.33203125 226.98828125 350.33203125 224.3125 351.8125 C221.19738421 353.60325159 218.50471999 355.22926168 216.0625 357.875 C215.381875 358.57625 214.70125 359.2775 214 360 C213.01 360 212.02 360 211 360 C210.67 358.68 210.34 357.36 210 356 C209.34 356 208.68 356 208 356 C207.75507813 355.33613281 207.51015625 354.67226563 207.2578125 353.98828125 C204.48302666 347.43404573 201.85461481 344.63700116 195.3046875 341.83984375 C191.63808079 340.50370741 188.83300443 339.86378992 184.9375 339.875 C183.96296875 339.87757813 182.9884375 339.88015625 181.984375 339.8828125 C179.1632898 339.9935881 176.47729649 340.33575749 173.6875 340.75 C170.18274528 341.12531232 169.17509725 341.08404668 165.875 339.5 C164.451875 338.2625 164.451875 338.2625 163 337 C162.34 336.43152344 161.68 335.86304688 161 335.27734375 C159.63167805 334.09263853 158.27392049 332.89556285 156.9296875 331.68359375 C155.00298028 329.94570514 155.00298028 329.94570514 152.7578125 328.41015625 C152.17773438 327.94480469 151.59765625 327.47945313 151 327 C151 326.34 151 325.68 151 325 C150.41605469 324.72542969 149.83210937 324.45085937 149.23046875 324.16796875 C147.06673115 323.03494328 145.24956601 321.79474129 143.3125 320.3125 C142.27416016 319.52166016 142.27416016 319.52166016 141.21484375 318.71484375 C138.92766531 316.94399484 136.6512252 315.15989834 134.375 313.375 C131.80919074 311.36408028 129.24117794 309.45155948 126.5 307.6875 C124 306 124 306 123 304 C121.71718489 303.21979127 120.3973631 302.49987238 119.0625 301.8125 C114.68438345 299.45770861 110.73251205 296.73760302 106.703125 293.8359375 C102.74347709 291.14658126 98.57130598 288.86817702 94.37109375 286.578125 C92 285 92 285 91 282 C89.67334123 281.64102174 88.33780464 281.31490894 87 281 C84.82229057 279.78459895 82.67912189 278.50641237 80.5625 277.1875 C79.45003906 276.50042969 78.33757812 275.81335938 77.19140625 275.10546875 C74 273 74 273 71.40625 270.90625 C69.0012052 269.00095477 66.67390933 267.68689564 63.9375 266.3125 C58.43844934 263.39554755 53.62713283 259.8748112 48.7265625 256.05078125 C46.0541228 253.95429258 46.0541228 253.95429258 43.1484375 252.35546875 C42.43945312 251.90816406 41.73046875 251.46085938 41 251 C41 250.34 41 249.68 41 249 C40.40960938 248.72414063 39.81921875 248.44828125 39.2109375 248.1640625 C32.78002969 244.77817817 27.77479603 239.13922871 24 233 C24 232.34 24 231.68 24 231 C23.34 231 22.68 231 22 231 C20.66180502 228.3773768 19.3292849 225.75213401 18 223.125 C17.6184375 222.37863281 17.236875 221.63226563 16.84375 220.86328125 C16.4828125 220.14785156 16.121875 219.43242187 15.75 218.6953125 C15.41484375 218.03547363 15.0796875 217.37563477 14.734375 216.69580078 C14 215 14 215 14 213 C13.34 213 12.68 213 12 213 C8.57665847 204.21342341 5.40611492 195.49307606 2.95703125 186.37890625 C2.21896032 183.77306397 1.40407468 181.26352304 0.51171875 178.7109375 C-10.41832371 146.17999366 -8.4783552 108.02374632 -8.3225708 74.1661377 C-8.30899305 70.1502497 -8.31434524 66.13447179 -8.31969929 62.11857128 C-8.32305469 58.19691864 -8.31638501 54.2753329 -8.30657005 50.35369301 C-8.30276953 48.50836856 -8.30154798 46.66303663 -8.3031559 44.81770897 C-8.30503588 31.96298719 -8.05087353 19.42379762 -3.4375 7.25 C-2.78587891 5.49429688 -2.78587891 5.49429688 -2.12109375 3.703125 C-1 1 -1 1 0 0 Z " fill="#38B3FA" transform="translate(31,45)"/>
<path d="M0 0 C1.88452148 1.3034668 1.88452148 1.3034668 2.65771484 3.03466797 C2.84539429 4.08618042 2.84539429 4.08618042 3.03686523 5.15893555 C3.18365723 5.96766113 3.33044922 6.77638672 3.48168945 7.60961914 C6.34741076 26.77347908 7.62692227 45.94005596 7.88452148 65.3034668 C7.89547852 66.10625061 7.90643555 66.90903442 7.91772461 67.73614502 C9.01612568 153.00558576 9.01612568 153.00558576 -4.11547852 190.3034668 C-4.59796571 191.80761404 -5.07705405 193.31285519 -5.55297852 194.8190918 C-8.600214 204.17424243 -12.19406525 213.00658389 -16.74047852 221.7409668 C-17.19551758 222.62236328 -17.65055664 223.50375977 -18.11938477 224.41186523 C-20.63682028 229.10560551 -23.1504738 232.66775908 -27.11547852 236.3034668 C-27.90090137 237.40402845 -28.65748308 238.52656946 -29.36547852 239.6784668 C-31.98905223 243.50520807 -35.30767483 246.0069822 -39.02954102 248.7253418 C-41.09590861 250.20019625 -41.09590861 250.20019625 -42.57250977 251.8347168 C-44.57496612 253.74085247 -46.71938219 254.79409947 -49.17797852 256.0534668 C-53.96184991 258.59351972 -58.29368068 261.46651148 -62.68579102 264.6237793 C-72.34803666 271.3034668 -72.34803666 271.3034668 -76.11547852 271.3034668 C-76.44547852 272.2934668 -76.77547852 273.2834668 -77.11547852 274.3034668 C-79.00610352 275.5847168 -79.00610352 275.5847168 -81.36547852 276.8034668 C-83.9878184 278.18342626 -86.52867015 279.55841483 -89.05297852 281.1159668 C-91.11547852 282.3034668 -91.11547852 282.3034668 -93.11547852 282.3034668 C-93.11547852 282.9634668 -93.11547852 283.6234668 -93.11547852 284.3034668 C-95.54680906 285.94210076 -97.96319386 287.45268014 -100.49047852 288.9284668 C-101.18915039 289.34870117 -101.88782227 289.76893555 -102.60766602 290.2019043 C-107.84407024 293.3034668 -107.84407024 293.3034668 -110.11547852 293.3034668 C-110.11547852 293.9634668 -110.11547852 294.6234668 -110.11547852 295.3034668 C-112.04891434 296.60338114 -114.04029871 297.81747995 -116.05297852 298.9909668 C-121.00631773 301.93283185 -125.56130571 305.07404916 -130.04516602 308.70581055 C-132.72331084 310.77252985 -135.55526868 312.48104338 -138.48657227 314.1628418 C-140.42387796 315.37239069 -140.42387796 315.37239069 -142.11547852 318.3034668 C-143.76714163 319.32805781 -145.43606469 320.3250257 -147.11547852 321.3034668 C-148.84823063 322.64756423 -150.55539577 324.02506952 -152.24047852 325.4284668 C-153.19825195 326.21350586 -154.15602539 326.99854492 -155.14282227 327.80737305 C-157.12194212 329.46920956 -159.07309951 331.16493589 -160.99438477 332.89331055 C-168.94502833 339.8929731 -168.94502833 339.8929731 -173.17797852 340.4284668 C-178.01663451 339.8088828 -181.12028891 336.15501741 -184.46704102 332.88549805 C-189.95194794 327.53811829 -195.99139875 322.70517788 -202.30297852 318.3659668 C-203.23110352 317.6853418 -204.15922852 317.0047168 -205.11547852 316.3034668 C-205.11547852 315.6434668 -205.11547852 314.9834668 -205.11547852 314.3034668 C-206.16928711 313.9612207 -206.16928711 313.9612207 -207.24438477 313.61206055 C-210.69027622 312.04148417 -213.25125818 309.85384617 -216.05297852 307.3659668 C-220.75632034 303.28765379 -225.524063 299.32627581 -230.42797852 295.4909668 C-231.01393799 295.03157715 -231.59989746 294.5721875 -232.20361328 294.09887695 C-235.4244552 291.58600781 -238.68535741 289.14257155 -241.99047852 286.7409668 C-243.02172852 285.9365918 -244.05297852 285.1322168 -245.11547852 284.3034668 C-245.11547852 283.6434668 -245.11547852 282.9834668 -245.11547852 282.3034668 C-245.68008789 282.03791992 -246.24469727 281.77237305 -246.82641602 281.4987793 C-254.1016782 277.6997516 -260.5503838 272.26201298 -266.88891602 267.1003418 C-268.3561487 265.91625928 -269.86217062 264.77848873 -271.40454102 263.6940918 C-271.96915039 263.23518555 -272.53375977 262.7762793 -273.11547852 262.3034668 C-273.11547852 261.6434668 -273.11547852 260.9834668 -273.11547852 260.3034668 C-273.83606445 260.01600586 -274.55665039 259.72854492 -275.29907227 259.43237305 C-277.08512011 258.7164676 -278.86923072 257.99569432 -280.65063477 257.26831055 C-281.4846582 256.92928711 -282.31868164 256.59026367 -283.17797852 256.2409668 C-284.43288086 255.72856445 -284.43288086 255.72856445 -285.71313477 255.20581055 C-295.45822087 251.54546113 -303.76238613 253.2612786 -313.11547852 257.3034668 C-314.22922852 257.7778418 -315.34297852 258.2522168 -316.49047852 258.7409668 C-319.56130141 260.56883757 -321.61644144 262.74631258 -324.11547852 265.3034668 C-326.35100355 267.11515623 -328.62940562 268.86182931 -330.91625977 270.6081543 C-332.7330136 272.00863594 -334.49554184 273.44082642 -336.24047852 274.9284668 C-345.16811009 282.3034668 -345.16811009 282.3034668 -348.11547852 282.3034668 C-348.44547852 283.2934668 -348.77547852 284.2834668 -349.11547852 285.3034668 C-356.1304281 291.08131104 -363.60640404 291.90704665 -372.36547852 291.9909668 C-373.299646 292.0098999 -374.23381348 292.02883301 -375.19628906 292.04833984 C-381.71065375 291.94008549 -386.05843784 290.44718003 -391.11547852 286.3034668 C-393.83278818 283.33912898 -394.37186939 281.03585736 -394.30297852 277.1159668 C-393.42150239 271.02763171 -389.40432313 266.50460498 -385.11547852 262.3034668 C-384.45547852 262.3034668 -383.79547852 262.3034668 -383.11547852 262.3034668 C-382.87442383 261.74401367 -382.63336914 261.18456055 -382.38500977 260.6081543 C-380.85022423 257.82192826 -378.96458557 255.76082265 -376.80297852 253.4284668 C-374.17280844 250.56995398 -371.59571466 247.71873381 -369.17797852 244.6784668 C-368.15704102 243.5028418 -368.15704102 243.5028418 -367.11547852 242.3034668 C-366.45547852 242.3034668 -365.79547852 242.3034668 -365.11547852 242.3034668 C-364.85210693 241.71339844 -364.58873535 241.12333008 -364.31738281 240.51538086 C-363.06346199 238.20773864 -361.7635259 236.73619285 -359.88500977 234.9128418 C-358.93331909 233.97855347 -358.93331909 233.97855347 -357.96240234 233.02539062 C-357.29104248 232.37465576 -356.61968262 231.7239209 -355.92797852 231.0534668 C-349.99300649 225.25974284 -349.99300649 225.25974284 -344.42797852 219.1159668 C-326.37407332 197.85144444 -326.37407332 197.85144444 -317.11547852 196.4284668 C-316.12547852 196.3872168 -315.13547852 196.3459668 -314.11547852 196.3034668 C-314.11547852 195.6434668 -314.11547852 194.9834668 -314.11547852 194.3034668 C-306.42329425 192.57833647 -299.40615276 192.12547304 -291.55297852 192.6159668 C-290.10761719 192.68847656 -290.10761719 192.68847656 -288.63305664 192.76245117 C-282.43978448 193.09236924 -276.28052293 193.63157559 -270.11547852 194.3034668 C-270.11547852 194.9634668 -270.11547852 195.6234668 -270.11547852 196.3034668 C-269.36266602 196.26866211 -268.60985352 196.23385742 -267.83422852 196.19799805 C-260.78646022 196.01838259 -254.37481771 196.68494176 -247.47167969 198.08911133 C-223.53892969 202.86832605 -195.75696011 205.40305259 -174.11547852 192.3034668 C-171.3854513 190.46871167 -168.71080275 188.59317521 -166.07641602 186.6237793 C-164.11547852 185.3034668 -164.11547852 185.3034668 -162.11547852 185.3034668 C-161.78547852 184.3134668 -161.45547852 183.3234668 -161.11547852 182.3034668 C-159.25146925 180.93690786 -157.32382805 179.6560176 -155.36547852 178.4284668 C-151.0698261 175.73045851 -147.61883018 172.97058114 -144.11547852 169.3034668 C-142.90184258 168.18225204 -141.67473907 167.07522822 -140.42797852 165.9909668 C-139.84661133 165.47920898 -139.26524414 164.96745117 -138.66625977 164.44018555 C-137.11547852 163.3034668 -137.11547852 163.3034668 -135.11547852 163.3034668 C-134.78547852 162.3134668 -134.45547852 161.3234668 -134.11547852 160.3034668 C-132.00610352 158.4362793 -132.00610352 158.4362793 -129.36547852 156.4284668 C-125.68920055 153.56451088 -122.33022592 150.68741143 -119.11547852 147.3034668 C-117.8494463 146.00709394 -116.57809011 144.71591022 -115.30297852 143.4284668 C-114.6984082 142.81229492 -114.09383789 142.19612305 -113.47094727 141.5612793 C-111.5691254 139.73830576 -109.64006996 138.03212692 -107.63891602 136.32299805 C-102.25556514 131.64247527 -97.24692178 126.58461341 -92.21533203 121.53369141 C-90.55620532 119.86920402 -88.891798 118.21013233 -87.22680664 116.55151367 C-81.64734412 110.97595812 -76.19218391 105.34683839 -71.11547852 99.3034668 C-70.41346313 98.4839856 -70.41346313 98.4839856 -69.69726562 97.64794922 C-68.41123536 96.14474551 -67.13801763 94.63060848 -65.86547852 93.1159668 C-65.03532227 92.13241211 -64.20516602 91.14885742 -63.34985352 90.13549805 C-61.35488393 87.60690897 -59.75140518 85.06794577 -58.11547852 82.3034668 C-57.35235352 81.5609668 -56.58922852 80.8184668 -55.80297852 80.0534668 C-52.92328207 77.10680067 -50.84447758 74.04881713 -48.64282227 70.5847168 C-47.11547852 68.3034668 -47.11547852 68.3034668 -45.17016602 65.8737793 C-38.19366472 57.14652102 -31.99276114 47.24024291 -26.54125977 37.48706055 C-25.83549805 36.40618164 -25.83549805 36.40618164 -25.11547852 35.3034668 C-24.45547852 35.3034668 -23.79547852 35.3034668 -23.11547852 35.3034668 C-22.86024414 34.46557617 -22.60500977 33.62768555 -22.34204102 32.7644043 C-20.99778934 28.97138842 -19.32533658 25.50121889 -17.49047852 21.9284668 C-17.00321289 20.9674707 -17.00321289 20.9674707 -16.50610352 19.98706055 C-15.71290445 18.42399179 -14.91470821 16.86346058 -14.11547852 15.3034668 C-13.45547852 15.3034668 -12.79547852 15.3034668 -12.11547852 15.3034668 C-11.77516602 14.0969043 -11.77516602 14.0969043 -11.42797852 12.8659668 C-9.79765418 8.44080074 -7.85315553 4.16221036 -5.11547852 0.3034668 C-2.11547852 -0.6965332 -2.11547852 -0.6965332 0 0 Z " fill="#38B3FA" transform="translate(657.115478515625,44.696533203125)"/>
<path d="M0 0 C0.51327465 0.32460217 1.0265493 0.64920434 1.55537772 0.98364294 C4.83845037 2.34858758 7.55787533 2.25541536 11.11395645 2.26171303 C11.83444227 2.26570909 12.55492809 2.26970515 13.29724681 2.27382231 C15.72413261 2.28483682 18.15079192 2.28158966 20.57769775 2.2784729 C22.33006796 2.28347348 24.08243586 2.28934857 25.83480048 2.29602563 C30.66004213 2.31186843 35.48522562 2.31525866 40.31049013 2.31667423 C45.5102127 2.32036083 50.70990308 2.33551257 55.90960693 2.34928894 C64.92173172 2.37158893 73.93384509 2.38658573 82.94599152 2.39665604 C95.97612263 2.41122661 109.00621401 2.43675885 122.03632185 2.46498732 C143.17557125 2.51048484 164.31482635 2.5470874 185.45410156 2.578125 C205.99187218 2.60829843 226.52962883 2.64264314 247.06738281 2.68261719 C248.96553566 2.68630951 248.96553566 2.68630951 250.90203503 2.69007643 C257.25019884 2.70245079 263.59836248 2.71490737 269.94652605 2.72740483 C322.63099786 2.83101694 375.31548711 2.92020556 428 3 C428.0357672 4.88657786 428.06104301 6.7733561 428.08203125 8.66015625 C428.0972583 9.71082275 428.11248535 10.76148926 428.12817383 11.84399414 C427.85092946 18.67054262 425.58845682 24.27410885 422 30 C421.4328125 30.94359375 420.865625 31.8871875 420.28125 32.859375 C419.6934375 33.81328125 419.105625 34.7671875 418.5 35.75 C417.9121875 36.71421875 417.324375 37.6784375 416.71875 38.671875 C415 41 415 41 412 42 C410.93477688 43.86958238 410.93477688 43.86958238 410 46 C406.96648259 50.28261281 403.82670045 53.51773303 399.078125 55.90234375 C396.8783181 57.01740996 396.8783181 57.01740996 394.484375 58.69140625 C385.91155022 64.30121919 377.93443533 65.66720682 368 67 C367.20016095 67.17299338 366.4003219 67.34598677 365.57624531 67.52422237 C362.98372518 68.00300561 360.62861635 68.12310793 357.99491882 68.12025452 C356.52054604 68.12231651 356.52054604 68.12231651 355.01638794 68.12442017 C353.94967865 68.12082489 352.88296936 68.11722961 351.78393555 68.11352539 C350.65179123 68.11367142 349.51964691 68.11381744 348.35319519 68.1139679 C344.61435016 68.11327172 340.87555507 68.10549306 337.13671875 68.09765625 C334.54311653 68.09579102 331.94951395 68.09436761 329.35591125 68.09336853 C323.22910598 68.08994164 317.10232129 68.08206162 310.97552377 68.07201904 C303.99851766 68.06083173 297.02151069 68.05534086 290.04449785 68.05032361 C275.6963223 68.0398783 261.34816178 68.02229518 247 68 C247.00392761 69.2249543 247.00392761 69.2249543 247.00793457 70.47465515 C247.01655914 73.56352165 247.02277473 76.65238192 247.02746582 79.74125671 C247.03115671 81.71190809 247.03751641 83.6825539 247.04394531 85.65319824 C247.05723528 96.13067783 246.68146925 106.54674849 246 117 C245.0934668 117.01458252 244.18693359 117.02916504 243.25292969 117.04418945 C239.83066369 117.10590888 236.40911549 117.18017443 232.98730469 117.26245117 C231.51735382 117.29533418 230.04728777 117.32347494 228.57714844 117.34643555 C216.49656832 117.54008741 205.43789406 118.41958853 195 125 C194.34 125 193.68 125 193 125 C192.67 125.99 192.34 126.98 192 128 C190.21484375 129.82421875 190.21484375 129.82421875 187.9375 131.6875 C187.20402344 132.31011719 186.47054687 132.93273437 185.71484375 133.57421875 C183 135 183 135 175 135 C175 112.89 175 90.78 175 68 C165.72068359 68.01740234 165.72068359 68.01740234 156.25390625 68.03515625 C152.25716036 68.04028549 148.26041872 68.04510074 144.26367188 68.04882812 C137.96540449 68.05473047 131.66715207 68.06159083 125.36889648 68.07543945 C85.24350382 68.1607975 85.24350382 68.1607975 67.53046989 67.73226738 C65.56414427 67.68593363 63.59756456 67.65078231 61.6309967 67.6162262 C44.24499809 67.10368119 28.38753482 63.25306835 15.5859375 50.6171875 C14.27181533 49.12588032 12.9792363 47.61503373 11.71875 46.078125 C10.02646198 43.94968439 10.02646198 43.94968439 7.96875 42.05859375 C-0.09069581 33.63135577 -5.18921515 20.21857861 -5.0625 8.6875 C-5.05347656 7.61886719 -5.04445313 6.55023438 -5.03515625 5.44921875 C-5.02355469 4.64097656 -5.01195313 3.83273438 -5 3 C-3.68 3 -2.36 3 -1 3 C-0.67 2.01 -0.34 1.02 0 0 Z " fill="#000000" transform="translate(133,114)"/>
<path d="M0 0 C0.825 0.144375 1.65 0.28875 2.5 0.4375 C2.5 1.0975 2.5 1.7575 2.5 2.4375 C3.37265503 2.61756592 3.37265503 2.61756592 4.26293945 2.80126953 C6.58653495 3.46211094 8.24745806 4.34397472 10.29296875 5.6171875 C11.00646484 6.05160156 11.71996094 6.48601562 12.45507812 6.93359375 C13.92573214 7.84197672 15.394535 8.75336459 16.86132812 9.66796875 C21.90221641 12.72770219 26.83219949 14.81097888 32.5 16.4375 C33.71773706 21.33698894 33.80413194 26.24201556 34 31.26171875 C34.08332267 33.195964 34.16665633 35.13020878 34.25 37.06445312 C34.37623407 40.10615189 34.5009344 43.14790931 34.625 46.18969727 C34.7462817 49.13054166 34.8729391 52.07111929 35 55.01171875 C35.03544922 55.92628342 35.07089844 56.84084808 35.10742188 57.78312683 C35.14416016 58.62772964 35.18089844 59.47233246 35.21875 60.3425293 C35.24904297 61.08689743 35.27933594 61.83126556 35.31054688 62.59819031 C35.40036529 64.53257787 35.40036529 64.53257787 36.5 66.4375 C36.69394325 68.42541835 36.88310692 70.41395441 37.04443359 72.40478516 C38.21154768 86.42955987 40.84803045 100.88790796 47.5 113.4375 C47.96792969 114.40300781 48.43585938 115.36851562 48.91796875 116.36328125 C53.71452753 125.87664604 59.90204636 134.10913231 66.94824219 142.07470703 C70.5 146.13260908 70.5 146.13260908 70.5 149.4375 C63.45917001 149.9958037 56.97860449 149.12887346 50.125 147.625 C49.35236816 147.45967773 48.57973633 147.29435547 47.78369141 147.12402344 C43.47322665 146.12821888 40.25420167 144.8451533 36.5 142.4375 C34.36905348 141.5867216 32.22188994 140.77575257 30.0625 140 C25.33711016 138.22598104 21.5192935 136.45197012 17.5 133.4375 C16.736875 132.98375 15.97375 132.53 15.1875 132.0625 C8.36758584 127.93883097 1.98181825 123.23256501 -3.5 117.4375 C-4.428125 116.715625 -5.35625 115.99375 -6.3125 115.25 C-10.69995184 111.6644323 -14.36235762 107.13600001 -17.5 102.4375 C-17.5 101.4475 -17.5 100.4575 -17.5 99.4375 C-18.985 98.9425 -18.985 98.9425 -20.5 98.4375 C-23.19240301 93.96504855 -25.30994049 89.17353468 -27.5 84.4375 C-27.98210937 83.41269531 -28.46421875 82.38789062 -28.9609375 81.33203125 C-36.11963945 65.25749143 -36.66837712 48.53993345 -36.5625 31.25 C-36.55747088 29.80664219 -36.55291049 28.36328267 -36.54882812 26.91992188 C-36.5379438 23.42574495 -36.5207585 19.93163388 -36.5 16.4375 C-33.02218454 14.99300859 -29.9843707 14.12182417 -26.25 13.625 C-18.46342672 12.26626909 -13.03713655 8.98100465 -7.3125 3.625 C-4.54957543 1.06694158 -3.8802422 0.48503028 0 0 Z " fill="#000000" transform="translate(346.5,500.5625)"/>
<path d="M0 0 C0.825 0.680625 1.65 1.36125 2.5 2.0625 C2.5 2.7225 2.5 3.3825 2.5 4.0625 C3.16 4.0625 3.82 4.0625 4.5 4.0625 C8.05588799 9.54449398 8.23139413 14.73312769 7.5 21.0625 C6 24.75 6 24.75 4.5 27.0625 C3.84 27.0625 3.18 27.0625 2.5 27.0625 C2.29117188 27.59101563 2.08234375 28.11953125 1.8671875 28.6640625 C-0.06586859 32.05519519 -2.68098097 34.63365285 -5.375 37.4375 C-9.22788887 41.4497541 -12.41243106 45.41176855 -15.5 50.0625 C-17.5 52.0390625 -17.5 52.0390625 -19.5 53.6875 C-21.71994497 55.54912361 -23.78784633 57.35812596 -25.8125 59.4375 C-29.26251791 62.75973947 -33.33269135 62.25895609 -37.875 62.3125 C-39.83566406 62.35117187 -39.83566406 62.35117187 -41.8359375 62.390625 C-45.63237399 62.05064561 -47.53833834 61.41810734 -50.5 59.0625 C-50.5 58.4025 -50.5 57.7425 -50.5 57.0625 C-51.49 56.7325 -52.48 56.4025 -53.5 56.0625 C-56.21023398 50.2405159 -57.81922663 45.16912484 -55.7734375 38.80078125 C-53.77000485 33.87363997 -51.47742876 30.66112602 -47.5 27.0625 C-45.91477012 25.20327977 -44.36767354 23.31827543 -42.83203125 21.41796875 C-42.17267578 20.74701172 -42.17267578 20.74701172 -41.5 20.0625 C-40.84 20.0625 -40.18 20.0625 -39.5 20.0625 C-39.25636719 19.50304687 -39.01273438 18.94359375 -38.76171875 18.3671875 C-34.21050927 10.05383273 -25.65037237 1.22817593 -16.5625 -1.875 C-10.5315852 -3.41247145 -5.43965547 -3.38072046 0 0 Z " fill="#39B3FA" transform="translate(280.5,400.9375)"/>
<path d="M0 0 C1.60875 -0.00386719 1.60875 -0.00386719 3.25 -0.0078125 C6 0.125 6 0.125 8 1.125 C8 1.785 8 2.445 8 3.125 C8.5775 3.186875 9.155 3.24875 9.75 3.3125 C13.43911231 4.64467945 15.28909007 7.70318014 17 11.125 C17.66443222 18.91301706 17.71295265 24.7486523 13 31.125 C12.34 32.115 11.68 33.105 11 34.125 C10.34 34.125 9.68 34.125 9 34.125 C8.75894531 34.68316406 8.51789063 35.24132812 8.26953125 35.81640625 C6.73113421 38.61392209 4.84438036 40.70986915 2.6875 43.0625 C1.88183594 43.94292969 1.07617188 44.82335937 0.24609375 45.73046875 C-2.1172354 48.24998313 -4.55753119 50.68253119 -7 53.125 C-7.90324391 54.22311285 -8.79895364 55.32746092 -9.6875 56.4375 C-10.8321875 57.7678125 -10.8321875 57.7678125 -12 59.125 C-12.66 59.125 -13.32 59.125 -14 59.125 C-14 59.785 -14 60.445 -14 61.125 C-18.30798574 64.67908823 -22.30544681 66.38566617 -28 66.125 C-33.51973259 65.11083227 -38.64675959 63.89691905 -42 59.125 C-45.68595039 53.45430709 -46.5592563 48.83607558 -46 42.125 C-45.34 42.125 -44.68 42.125 -44 42.125 C-43.73832031 41.3928125 -43.47664063 40.660625 -43.20703125 39.90625 C-40.35722525 33.33970673 -35.06867066 28.06370475 -30 23.125 C-28.99005597 21.96693085 -27.99062661 20.79963613 -27 19.625 C-24.47466039 16.63344385 -21.76876846 13.89376846 -19 11.125 C-18.34 10.25875 -17.68 9.3925 -17 8.5 C-14.86463534 5.96425447 -12.95210519 4.60105259 -10 3.125 C-9.34 3.125 -8.68 3.125 -8 3.125 C-8 2.465 -8 1.805 -8 1.125 C-5.26922124 -0.24038938 -3.04439633 -0.00731826 0 0 Z " fill="#38B4FA" transform="translate(307,423.875)"/>
<path d="M0 0 C3.9418516 2.11638158 6.22651657 4.18063511 7.8671875 8.38671875 C9.49929093 14.75616136 9.16772937 21.15411751 6.0546875 27.01171875 C3.85964433 30.12136324 1.55824683 32.58333739 -1.1953125 35.19921875 C-1.7934375 36.04484375 -2.3915625 36.89046875 -3.0078125 37.76171875 C-6.64605433 41.81575965 -10.50574561 43.81665105 -15.9140625 44.5859375 C-22.20398554 44.83649762 -26.19067649 44.05695901 -31.1953125 40.19921875 C-34.23474333 36.4505874 -34.95212083 32.98198825 -35.1953125 28.19921875 C-34.57106297 24.06546878 -33.53942463 20.71538694 -31.1953125 17.19921875 C-30.5353125 17.19921875 -29.8753125 17.19921875 -29.1953125 17.19921875 C-28.91945313 16.60882813 -28.64359375 16.0184375 -28.359375 15.41015625 C-23.10717051 5.43449269 -11.7575778 -4.28879617 0 0 Z " fill="#39B4FA" transform="translate(336.1953125,463.80078125)"/>
<path d="M0 0 C0.61875 0.33 1.2375 0.66 1.875 1 C1.875 1.66 1.875 2.32 1.875 3 C2.4525 3.226875 3.03 3.45375 3.625 3.6875 C7.40136471 5.89037942 9.32736895 8.85258257 11.1875 12.75 C12.31200955 18.06586334 11.83399592 22.84225919 9.625 27.8125 C7.6179179 30.32135262 5.43428946 32.06492748 2.875 34 C2.194375 34.721875 1.51375 35.44375 0.8125 36.1875 C-2.73081622 39.50221517 -7.09959555 39.29483556 -11.75390625 39.203125 C-16.58086171 38.78961317 -20.32089827 37.67075508 -23.921875 34.3359375 C-27.88631721 29.59748514 -29.46702499 25.17851603 -29.125 19 C-28.65609753 16.52346656 -27.98673235 14.3824365 -27.125 12 C-26.465 12 -25.805 12 -25.125 12 C-24.8775 11.2575 -24.63 10.515 -24.375 9.75 C-23.02034961 6.76976913 -21.6148459 5.10080748 -19.125 3 C-18.465 3 -17.805 3 -17.125 3 C-17.125 2.34 -17.125 1.68 -17.125 1 C-11.81635442 -2.08955816 -5.7477439 -1.83927805 0 0 Z " fill="#39B3FA" transform="translate(222.125,391)"/>
<path d="M0 0 C0.66 0.33 1.32 0.66 2 1 C0.7260411 3.03833424 -0.61061923 5.03852126 -2 7 C-2.66 7 -3.32 7 -4 7 C-4.27457031 7.5878125 -4.54914062 8.175625 -4.83203125 8.78125 C-7.63727031 14.11026601 -11.49261063 18.15969654 -16.890625 20.89453125 C-19.15211834 22.04418419 -19.15211834 22.04418419 -21.796875 23.76171875 C-28.04603369 27.67140813 -32.59109764 29.87651829 -40 30 C-40 29.34 -40 28.68 -40 28 C-39.29359375 27.87882812 -38.5871875 27.75765625 -37.859375 27.6328125 C-22.31252539 24.19211628 -9.05767106 12.8067071 0 0 Z " fill="#000912" transform="translate(549,149)"/>
<path d="M0 0 C0 0.66 0 1.32 0 2 C-1.08667969 2.27263672 -1.08667969 2.27263672 -2.1953125 2.55078125 C-7.47495076 3.9234872 -12.17164147 5.40011464 -17 8 C-17.66 8 -18.32 8 -19 8 C-19 7.34 -19 6.68 -19 6 C-18.01 6 -17.02 6 -16 6 C-16 5.34 -16 4.68 -16 4 C-5.62642369 -0.59225513 -5.62642369 -0.59225513 0 0 Z " fill="#000A12" transform="translate(346,230)"/>
<path d="M0 0 C3.36202939 1.42609159 5.23675579 3.14348515 7.5625 5.9375 C10.03190133 8.88306043 10.03190133 8.88306043 12.71484375 11.62890625 C14 13 14 13 14 15 C10.9055548 13.65284929 9.10778741 12.2482789 7 9.625 C5.26814301 7.51072788 3.58992575 5.60071718 1.625 3.6875 C0 2 0 2 0 0 Z " fill="#000B16" transform="translate(139,152)"/>
<path d="M0 0 C0.99 0.33 1.98 0.66 3 1 C2.071875 1.598125 1.14375 2.19625 0.1875 2.8125 C-2.88449175 4.77779546 -2.88449175 4.77779546 -4.75 6.75 C-5.36875 7.36875 -5.36875 7.36875 -6 8 C-6.66 8 -7.32 8 -8 8 C-8.2475 8.639375 -8.495 9.27875 -8.75 9.9375 C-10 12 -10 12 -12.078125 12.62890625 C-13.02945312 12.81259766 -13.02945312 12.81259766 -14 13 C-10.06515575 7.96220698 -5.72615472 3.02790271 0 0 Z " fill="#46B4F2" transform="translate(336,242)"/>
<path d="M0 0 C0.66 0 1.32 0 2 0 C0.59155282 3.21524305 -1.10344786 5.32183868 -3.625 7.75 C-4.57246094 8.67039062 -4.57246094 8.67039062 -5.5390625 9.609375 C-6.02117187 10.06828125 -6.50328125 10.5271875 -7 11 C-7 6.68381834 -4.86729652 5.07210341 -2 2 C-1.34 2 -0.68 2 0 2 C0 1.34 0 0.68 0 0 Z M-10 11 C-9.34 11 -8.68 11 -8 11 C-8 11.66 -8 12.32 -8 13 C-8.66 13 -9.32 13 -10 13 C-10 12.34 -10 11.68 -10 11 Z " fill="#47ACF7" transform="translate(205,392)"/>
<path d="M0 0 C0.33 0 0.66 0 1 0 C1 4.95 1 9.9 1 15 C0.01 15 -0.98 15 -2 15 C-1.34 10.05 -0.68 5.1 0 0 Z " fill="#000A13" transform="translate(378,216)"/>
<path d="M0 0 C1.48285242 0.95262034 2.96118201 1.91228405 4.4375 2.875 C5.67306641 3.67550781 5.67306641 3.67550781 6.93359375 4.4921875 C9 6 9 6 10 8 C5.00724943 6.72278474 2.42388092 4.82669043 -1 1 C-0.67 0.67 -0.34 0.34 0 0 Z " fill="#000811" transform="translate(154,166)"/>
<path d="M0 0 C0.66 0 1.32 0 2 0 C2.66 3.3 3.32 6.6 4 10 C0.48283697 6.48283697 0.45323837 4.80432667 0 0 Z " fill="#000B16" transform="translate(129,130)"/>
<path d="M0 0 C-0.33 0.66 -0.66 1.32 -1 2 C-3.64860427 2.59355614 -6.29197322 2.74209269 -9 3 C-9 2.34 -9 1.68 -9 1 C-5.92677456 0.08941469 -3.19902639 -0.08886184 0 0 Z " fill="#40B0EE" transform="translate(352,238)"/>
<path d="M0 0 C0.66 0 1.32 0 2 0 C1.34 1.98 0.68 3.96 0 6 C-0.66 6 -1.32 6 -2 6 C-1.34 4.02 -0.68 2.04 0 0 Z M-3 6 C-2 10 -2 10 -2 10 Z " fill="#45B5F8" transform="translate(30,47)"/>
<path d="M0 0 C2 1 2 1 2 1 Z " fill="#000000" transform="translate(408,651)"/>
</svg>
